<?xml version="1.0" standalone="no"?>
<svg viewBox="0 0 200 200" xmlns="http://www.w3.org/2000/svg">
  <path fill="#FF0066" d="M37.3,-42.5C49.7,-42.2,62.2,-33.3,64.5,-22C66.8,-10.7,58.9,2.9,53.2,16.4C47.6,29.8,44.2,43,35.7,54.2C27.2,65.4,13.6,74.6,-0.8,75.8C-15.3,77,-30.6,70.1,-37.8,58.4C-45,46.8,-44,30.4,-51.6,14.9C-59.2,-0.6,-75.3,-15.1,-77,-29.6C-78.6,-44.1,-65.8,-58.5,-50.5,-57.9C-35.3,-57.3,-17.6,-41.7,-2.6,-38.1C12.4,-34.5,24.8,-42.9,37.3,-42.5Z" transform="translate(100 100)"></path>
</svg>
