<?xml version="1.0" standalone="no"?>
<svg viewBox="0 0 200 200" xmlns="http://www.w3.org/2000/svg">
  <path fill="#08BDBA" d="M44.5,-64.2C57.1,-52.1,66.4,-38.3,64.2,-25.5C61.9,-12.6,48.2,-0.7,38.8,7.8C29.4,16.3,24.3,21.3,18.5,35C12.8,48.6,6.4,70.7,-6.2,79.3C-18.8,87.8,-37.6,82.7,-47.3,70.4C-57.1,58.1,-57.9,38.6,-64.1,20.6C-70.2,2.6,-81.7,-13.8,-75.9,-22.5C-70.1,-31.1,-46.9,-31.9,-31.4,-43.1C-15.9,-54.3,-7.9,-75.8,4,-81.3C15.9,-86.9,31.9,-76.3,44.5,-64.2Z" transform="translate(100 100)"></path>
</svg>
