<?xml version="1.0" standalone="no"?>
<svg viewBox="0 0 200 200" xmlns="http://www.w3.org/2000/svg">
  <path fill="#D0E2FF" d="M31.8,-52.9C44.3,-47.9,59.6,-45.6,69.4,-37.2C79.3,-28.8,83.8,-14.4,85.3,0.9C86.8,16.1,85.4,32.3,75.4,40.5C65.4,48.7,47,49,33,52.3C19,55.6,9.5,61.8,-0.8,63.2C-11,64.5,-22.1,60.9,-32.5,55.6C-42.9,50.2,-52.7,43.2,-61.6,33.6C-70.6,24.1,-78.6,12,-76.7,1.1C-74.9,-9.8,-63,-19.7,-56.9,-34.1C-50.7,-48.5,-50.3,-67.5,-41.8,-74.7C-33.3,-81.9,-16.6,-77.4,-3.5,-71.4C9.7,-65.3,19.4,-57.8,31.8,-52.9Z" transform="translate(100 100)"></path>
</svg>
